<svg width="28" height="28" viewBox="0 0 28 28" fill="none" xmlns="http://www.w3.org/2000/svg">
<path d="M27.7431 18.4015C27.2913 20.5909 26.2586 22.6241 24.753 24.3061C24.3942 24.707 23.7775 24.7044 23.3902 24.331L21.0496 22.0749C20.6416 21.6816 20.6475 21.0315 21 20.5877C21.7433 19.6518 22.2577 18.5607 22.4981 17.3958C22.8076 15.8959 22.6488 14.3412 22.0416 12.9282C21.825 12.4241 21.5548 11.9462 21.2369 11.5012C21.0073 11.18 20.9479 10.7602 21.1187 10.4043L22.0315 8.50264L22.6779 7.15591C22.9573 6.57398 23.7082 6.40486 24.1689 6.85701C25.3649 8.0308 26.3227 9.42048 26.9823 10.9555C27.9942 13.3104 28.259 15.9016 27.7431 18.4015Z" fill="white"/>
<path d="M13.1604 18.8551L9.64027 9.45806L8.02996 5.40834C7.84094 4.93298 8.0397 4.38781 8.50732 4.18036C10.2528 3.406 12.1589 3 14.0969 3C15.9692 3 17.8118 3.37896 19.5085 4.10296C19.9704 4.30002 20.1797 4.82751 20.0133 5.30126L18.5535 9.45806L15.0333 18.8551C14.7091 19.7207 13.4847 19.7207 13.1604 18.8551Z" fill="white"/>
<path d="M0.256896 18.4015C0.708684 20.5909 1.74144 22.6241 3.24702 24.3061C3.60583 24.707 4.22248 24.7044 4.60983 24.331L6.95036 22.0749C7.35835 21.6816 7.35248 21.0315 7.00005 20.5877C6.25674 19.6518 5.74228 18.5607 5.50191 17.3958C5.19239 15.8959 5.35125 14.3412 5.95839 12.9282C6.17501 12.4241 6.44523 11.9462 6.76314 11.5012C6.99267 11.18 7.05214 10.7602 6.88128 10.4043L5.96849 8.50264L5.32206 7.15591C5.04273 6.57398 4.29178 6.40486 3.83109 6.85701C2.63513 8.0308 1.67733 9.42048 1.01769 10.9555C0.00579407 13.3104 -0.258965 15.9016 0.256896 18.4015Z" fill="white"/>
</svg>
