<svg width="48" height="47" viewBox="0 0 48 47" fill="none" xmlns="http://www.w3.org/2000/svg">
<mask id="path-1-inside-1_1387_1384" fill="white">
<path d="M43.5 2.07694C42.3954 0.163773 39.9452 -0.497274 38.0687 0.668419C23.3296 9.82414 10.6755 21.972 0.926029 36.3252C-0.315266 38.1526 0.245253 40.6278 2.11176 41.8095L7.92468 45.4897C9.79119 46.6714 12.2562 46.1115 13.5055 44.2896C21.9576 31.9635 32.8525 21.5045 45.5132 13.5624C47.3846 12.3885 48.0446 9.94837 46.94 8.0352L43.5 2.07694Z"/>
</mask>
<path d="M43.5 2.07694C42.3954 0.163773 39.9452 -0.497274 38.0687 0.668419C23.3296 9.82414 10.6755 21.972 0.926029 36.3252C-0.315266 38.1526 0.245253 40.6278 2.11176 41.8095L7.92468 45.4897C9.79119 46.6714 12.2562 46.1115 13.5055 44.2896C21.9576 31.9635 32.8525 21.5045 45.5132 13.5624C47.3846 12.3885 48.0446 9.94837 46.94 8.0352L43.5 2.07694Z" fill="#54B2E7" stroke="white" stroke-opacity="0.2" stroke-width="2" mask="url(#path-1-inside-1_1387_1384)"/>
</svg>
