<svg width="249" height="175" viewBox="0 0 249 175" fill="none" xmlns="http://www.w3.org/2000/svg">
<path d="M248.473 121.433C248.457 120.654 248.434 119.875 248.403 119.097L233.535 119.685C233.562 120.37 233.582 121.056 233.597 121.741L248.473 121.433Z" fill="white" fill-opacity="0.16"/>
<path d="M248.308 117.1C248.265 116.322 248.214 115.544 248.156 114.767L233.317 115.875C233.368 116.559 233.413 117.243 233.451 117.928L248.308 117.1Z" fill="white" fill-opacity="0.16"/>
<path d="M247.992 112.783C247.921 112.007 247.843 111.232 247.758 110.458L232.967 112.083C233.042 112.764 233.111 113.446 233.173 114.129L247.992 112.783Z" fill="white" fill-opacity="0.16"/>
<path d="M247.525 108.48C247.427 107.707 247.323 106.935 247.211 106.164L232.485 108.304C232.584 108.983 232.676 109.662 232.762 110.343L247.525 108.48Z" fill="white" fill-opacity="0.16"/>
<path d="M246.908 104.196C246.784 103.427 246.652 102.659 246.513 101.892L231.872 104.545C231.994 105.22 232.11 105.896 232.219 106.573L246.908 104.196Z" fill="white" fill-opacity="0.16"/>
<path d="M246.143 99.9362C245.991 99.1719 245.833 98.409 245.667 97.6477L231.127 100.81C231.273 101.48 231.412 102.151 231.546 102.824L246.143 99.9362Z" fill="white" fill-opacity="0.16"/>
<path d="M245.229 95.7056C245.051 94.947 244.866 94.1902 244.674 93.4351L230.253 97.1029C230.422 97.7673 230.585 98.4334 230.741 99.1009L245.229 95.7056Z" fill="white" fill-opacity="0.16"/>
<path d="M244.168 91.5095C243.964 90.7576 243.752 90.0076 243.534 89.2597L229.25 93.4286C229.442 94.0867 229.628 94.7467 229.808 95.4083L244.168 91.5095Z" fill="white" fill-opacity="0.16"/>
<path d="M242.961 87.3529C242.731 86.6086 242.493 85.8665 242.249 85.1266L228.119 89.7914C228.334 90.4425 228.543 91.0956 228.746 91.7505L242.961 87.3529Z" fill="white" fill-opacity="0.16"/>
<path d="M241.61 83.241C241.354 82.5052 241.091 81.7718 240.821 81.0409L226.862 86.196C227.1 86.8392 227.331 87.4846 227.557 88.1321L241.61 83.241Z" fill="white" fill-opacity="0.16"/>
<path d="M240.116 79.1787C239.834 78.4523 239.546 77.7285 239.251 77.0075L225.481 82.6466C225.74 83.2811 225.994 83.918 226.242 84.5573L240.116 79.1787Z" fill="white" fill-opacity="0.16"/>
<path d="M238.481 75.1711C238.175 74.455 237.861 73.7417 237.541 73.0315L223.976 79.1477C224.258 79.7727 224.534 80.4004 224.804 81.0306L238.481 75.1711Z" fill="white" fill-opacity="0.16"/>
<path d="M236.708 71.2229C236.376 70.5179 236.038 69.816 235.693 69.1174L222.35 75.7033C222.653 76.3181 222.951 76.9358 223.243 77.5562L236.708 71.2229Z" fill="white" fill-opacity="0.16"/>
<path d="M234.798 67.3391C234.442 66.6461 234.079 65.9565 233.71 65.2703L220.605 72.3178C220.93 72.9217 221.249 73.5286 221.562 74.1384L234.798 67.3391Z" fill="white" fill-opacity="0.16"/>
<path d="M232.753 63.5243C232.373 62.8442 231.987 62.1676 231.594 61.4947L218.743 68.9953C219.088 69.5875 219.428 70.1829 219.763 70.7814L232.753 63.5243Z" fill="white" fill-opacity="0.16"/>
<path d="M230.576 59.7832C230.173 59.1167 229.763 58.454 229.347 57.7952L216.766 65.7398C217.132 66.3195 217.492 66.9027 217.847 67.4892L230.576 59.7832Z" fill="white" fill-opacity="0.16"/>
<path d="M228.271 56.1203C227.844 55.4683 227.412 54.8203 226.973 54.1765L214.676 62.5553C215.062 63.1219 215.443 63.6921 215.818 64.2659L228.271 56.1203Z" fill="white" fill-opacity="0.16"/>
<path d="M225.838 52.5401C225.389 51.9034 224.934 51.2709 224.474 50.6427L212.477 59.4456C212.882 59.9984 213.283 60.5549 213.678 61.1153L225.838 52.5401Z" fill="white" fill-opacity="0.16"/>
<path d="M223.283 49.047C222.812 48.4263 222.335 47.8101 221.853 47.1984L210.17 56.4146C210.595 56.9529 211.014 57.4951 211.429 58.0413L223.283 49.047Z" fill="white" fill-opacity="0.16"/>
<path d="M220.607 45.6451C220.114 45.0413 219.616 44.4421 219.113 43.8476L207.759 53.4659C208.202 53.989 208.641 54.5163 209.074 55.0477L220.607 45.6451Z" fill="white" fill-opacity="0.16"/>
<path d="M217.814 42.3388C217.301 41.7525 216.782 41.171 216.258 40.5945L205.247 50.6032C205.708 51.1105 206.165 51.6222 206.616 52.1381L217.814 42.3388Z" fill="white" fill-opacity="0.16"/>
<path d="M214.907 39.132C214.374 38.5639 213.835 38.0009 213.291 37.443L202.636 47.8299C203.115 48.3208 203.589 48.8163 204.058 49.3161L214.907 39.132Z" fill="white" fill-opacity="0.16"/>
<path d="M211.89 36.0285C211.337 35.4794 210.779 34.9355 210.216 34.397L199.93 45.1493C200.426 45.6233 200.917 46.1019 201.403 46.5851L211.89 36.0285Z" fill="white" fill-opacity="0.16"/>
<path d="M208.767 33.0322C208.195 32.5028 207.619 31.9787 207.037 31.4601L197.133 42.5649C197.644 43.0213 198.152 43.4824 198.655 43.9484L208.767 33.0322Z" fill="white" fill-opacity="0.16"/>
<path d="M205.541 30.1468C204.951 29.6376 204.356 29.1339 203.757 28.636L194.246 40.0796C194.774 40.5179 195.297 40.9611 195.816 41.4091L205.541 30.1468Z" fill="white" fill-opacity="0.16"/>
<path d="M202.216 27.3757C201.609 26.8874 200.997 26.4048 200.381 25.928L191.275 37.6967C191.817 38.1162 192.356 38.5409 192.89 38.9706L202.216 27.3757Z" fill="white" fill-opacity="0.16"/>
<path d="M198.796 24.7223C198.173 24.2555 197.544 23.7946 196.912 23.3396L188.222 35.4188C188.779 35.8192 189.332 36.2248 189.881 36.6356L198.796 24.7223Z" fill="white" fill-opacity="0.16"/>
<path d="M195.286 22.1899C194.647 21.7451 194.003 21.3064 193.355 20.8737L185.092 33.2489C185.662 33.6296 186.229 34.0157 186.792 34.4071L195.286 22.1899Z" fill="white" fill-opacity="0.16"/>
<path d="M191.69 19.7815C191.035 19.3593 190.376 18.9433 189.714 18.5336L181.888 31.1896C182.471 31.5501 183.051 31.9162 183.627 32.2877L191.69 19.7815Z" fill="white" fill-opacity="0.16"/>
</svg>
