<?xml version="1.0" encoding="UTF-8"?>
<svg version="1.1" xmlns="http://www.w3.org/2000/svg" width="161" height="225">
<path d="M0 0 C0.5662207 0.2487085 1.13244141 0.49741699 1.71582031 0.75366211 C1.71582031 4.75366211 1.71582031 4.75366211 0.02832031 6.86694336 C-0.73480469 7.59268555 -1.49792969 8.31842773 -2.28417969 9.06616211 C-3.51201172 10.23791992 -3.51201172 10.23791992 -4.76464844 11.43334961 C-5.59609375 12.19905273 -6.42753906 12.96475586 -7.28417969 13.75366211 C-8.0228125 14.43686523 -8.76144531 15.12006836 -9.52246094 15.82397461 C-12.65387088 18.64283328 -15.42885869 20.99195914 -19.28417969 22.75366211 C-19.94417969 21.43366211 -20.60417969 20.11366211 -21.28417969 18.75366211 C-18.22118662 15.54606231 -15.13072477 12.36635674 -12.03417969 9.19116211 C-11.16148438 8.27657227 -10.28878906 7.36198242 -9.38964844 6.41967773 C-8.5453125 5.55922852 -7.70097656 4.6987793 -6.83105469 3.81225586 C-6.05600586 3.01102295 -5.28095703 2.20979004 -4.48242188 1.38427734 C-2.28417969 -0.24633789 -2.28417969 -0.24633789 0 0 Z " fill="#FFFFFF" transform="translate(89.2841796875,52.246337890625)"/>
<path d="M0 0 C0.33 1.65 0.66 3.3 1 5 C-10.71875 10.859375 -10.71875 10.859375 -12.84765625 11.91992188 C-14.31797836 12.65775139 -15.78397078 13.40425624 -17.24609375 14.15820312 C-22.78935185 17 -22.78935185 17 -25 17 C-25.33 15.35 -25.66 13.7 -26 12 C-22.04490505 9.99354751 -18.08540979 7.99593864 -14.125 6 C-12.99707031 5.42765625 -11.86914062 4.8553125 -10.70703125 4.265625 C-9.63066406 3.72421875 -8.55429688 3.1828125 -7.4453125 2.625 C-6.45031738 2.12226562 -5.45532227 1.61953125 -4.43017578 1.1015625 C-2 0 -2 0 0 0 Z " fill="#FFFFFF" transform="translate(135,114)"/>
<path d="M0 0 C0.33 1.32 0.66 2.64 1 4 C-3.10135565 5.50776616 -7.20652067 7.00487576 -11.3125 8.5 C-12.47974609 8.92925781 -13.64699219 9.35851562 -14.84960938 9.80078125 C-15.96787109 10.20683594 -17.08613281 10.61289063 -18.23828125 11.03125 C-19.26993408 11.40830078 -20.30158691 11.78535156 -21.36450195 12.17382812 C-24 13 -24 13 -27 13 C-27.33 11.68 -27.66 10.36 -28 9 C-22.73435807 6.14777729 -17.32769891 3.84721931 -11.75 1.6875 C-11.05261719 1.40890137 -10.35523438 1.13030273 -9.63671875 0.84326172 C-3.42937845 -1.51140133 -3.42937845 -1.51140133 0 0 Z " fill="#FFFFFF" transform="translate(146,139)"/>
<path d="M0 0 C1.73730469 0.88647461 1.73730469 0.88647461 2.73730469 3.88647461 C-2.79997924 7.88631853 -8.43163701 11.72895971 -14.20019531 15.38647461 C-15.28171875 16.07741211 -16.36324219 16.76834961 -17.47753906 17.48022461 C-18.39664063 17.94428711 -19.31574219 18.40834961 -20.26269531 18.88647461 C-21.25269531 18.55647461 -22.24269531 18.22647461 -23.26269531 17.88647461 C-23.59269531 16.89647461 -23.92269531 15.90647461 -24.26269531 14.88647461 C-20.69356135 12.34504809 -17.10531179 9.83206999 -13.51269531 7.32397461 C-12.49691406 6.60016602 -11.48113281 5.87635742 -10.43457031 5.13061523 C-8.96503906 4.11064453 -8.96503906 4.11064453 -7.46582031 3.07006836 C-6.56508789 2.43641357 -5.66435547 1.80275879 -4.73632812 1.14990234 C-2.26269531 -0.11352539 -2.26269531 -0.11352539 0 0 Z " fill="#FFFFFF" transform="translate(121.2626953125,92.113525390625)"/>
<path d="M0 0 C0.99 0.99 1.98 1.98 3 3 C1.59089966 6.40952776 0.07913236 7.93934164 -2.9921875 9.9453125 C-3.77980469 10.46480469 -4.56742188 10.98429687 -5.37890625 11.51953125 C-6.20261719 12.04933594 -7.02632812 12.57914063 -7.875 13.125 C-8.69097656 13.66253906 -9.50695312 14.20007813 -10.34765625 14.75390625 C-13.8286996 17.03106511 -17.2458456 19.19745614 -21 21 C-21.66 19.35 -22.32 17.7 -23 16 C-19.72955141 13.70778388 -16.4585751 11.41632197 -13.1875 9.125 C-12.25873047 8.47402344 -11.32996094 7.82304688 -10.37304688 7.15234375 C-9.0340332 6.21455078 -9.0340332 6.21455078 -7.66796875 5.2578125 C-6.84578857 4.6817627 -6.0236084 4.10571289 -5.17651367 3.51220703 C-3.46407953 2.32243507 -1.7349771 1.1566514 0 0 Z " fill="#FFFFFF" transform="translate(116,84)"/>
<path d="M0 0 C2.0625 0.4375 2.0625 0.4375 4 1 C4 5 4 5 2.59472656 6.50805664 C1.94987305 6.97074951 1.30501953 7.43344238 0.640625 7.91015625 C-0.06320313 8.42513672 -0.76703125 8.94011719 -1.4921875 9.47070312 C-2.23726562 9.99599609 -2.98234375 10.52128906 -3.75 11.0625 C-4.47960937 11.59166016 -5.20921875 12.12082031 -5.9609375 12.66601562 C-7.32873505 13.65704712 -8.70041218 14.64276196 -10.07714844 15.62133789 C-11.44885415 16.60483486 -12.7879358 17.63450241 -14.10253906 18.69311523 C-16 20 -16 20 -18.25 19.6875 C-18.8275 19.460625 -19.405 19.23375 -20 19 C-19.62824896 16.34365005 -19.18756523 15.18471302 -17.25 13.27661133 C-16.13625 12.43779419 -16.13625 12.43779419 -15 11.58203125 C-14.195625 10.96779297 -13.39125 10.35355469 -12.5625 9.72070312 C-11.2940625 8.77614258 -11.2940625 8.77614258 -10 7.8125 C-8.33316512 6.54839885 -6.66648983 5.28408724 -5 4.01953125 C-4.2575 3.46370361 -3.515 2.90787598 -2.75 2.33520508 C-1.07202528 1.11644114 -1.07202528 1.11644114 0 0 Z " fill="#FFFFFF" transform="translate(109,78)"/>
<path d="M0 0 C1.32 0.66 2.64 1.32 4 2 C3.43216375 5.29734196 2.57840638 6.74661382 0.015625 8.875 C-0.59023437 9.38546875 -1.19609375 9.8959375 -1.8203125 10.421875 C-2.77550781 11.20304687 -2.77550781 11.20304687 -3.75 12 C-4.37132813 12.52078125 -4.99265625 13.0415625 -5.6328125 13.578125 C-9.05031252 16.4332516 -12.51223717 19.23108905 -16 22 C-17.32 21.34 -18.64 20.68 -20 20 C-18.68802295 17.03392938 -17.37512348 15.19062034 -14.8828125 13.125 C-14.27566406 12.61453125 -13.66851562 12.1040625 -13.04296875 11.578125 C-12.41003906 11.05734375 -11.77710937 10.5365625 -11.125 10 C-5.37222986 5.2100951 -5.37222986 5.2100951 0 0 Z " fill="#FFFFFF" transform="translate(99,64)"/>
<path d="M0 0 C1.32 0.66 2.64 1.32 4 2 C4 5 4 5 1.4375 7.70703125 C0.30021356 8.7515704 -0.84618178 9.78625149 -2 10.8125 C-2.58998779 11.34713867 -3.17997559 11.88177734 -3.7878418 12.43261719 C-8.01339885 16.22331781 -12.35960343 19.72442595 -17 23 C-17.66 22.34 -18.32 21.68 -19 21 C-18.512174 16.30025603 -15.10694632 14.00441904 -11.75 11.0625 C-10.5980784 10.03353632 -9.44702522 9.00359956 -8.296875 7.97265625 C-7.74193359 7.47781738 -7.18699219 6.98297852 -6.61523438 6.47314453 C-4.33062863 4.38951227 -2.1637084 2.20844674 0 0 Z " fill="#FFFFFF" transform="translate(93,58)"/>
<path d="M0 0 C1.32 0.66 2.64 1.32 4 2 C3.42619583 5.64385851 2.0621691 7.2836032 -0.5625 9.8203125 C-1.27664062 10.52027344 -1.99078125 11.22023438 -2.7265625 11.94140625 C-3.47679688 12.66199219 -4.22703125 13.38257813 -5 14.125 C-6.48123899 15.56297256 -7.96050745 17.00297862 -9.4375 18.4453125 C-10.42556641 19.39688232 -10.42556641 19.39688232 -11.43359375 20.36767578 C-13.0894141 21.93164923 -13.0894141 21.93164923 -14 24 C-15.32 23.34 -16.64 22.68 -18 22 C-16.64827153 17.91620659 -14.93063758 15.62316481 -11.8125 12.6875 C-7.62429991 8.64839441 -3.76011688 4.43717972 0 0 Z " fill="#FFFFFF" transform="translate(81,46)"/>
<path d="M0 0 C0.33 1.65 0.66 3.3 1 5 C-11.375 10.445 -11.375 10.445 -24 16 C-24.99 15.01 -25.98 14.02 -27 13 C-27 12.34 -27 11.68 -27 11 C-23.06675061 9.15744484 -19.12773978 7.32755281 -15.1875 5.5 C-14.06794922 4.97535156 -12.94839844 4.45070313 -11.79492188 3.91015625 C-10.72177734 3.41386719 -9.64863281 2.91757813 -8.54296875 2.40625 C-7.55321045 1.94541016 -6.56345215 1.48457031 -5.54370117 1.00976562 C-3 0 -3 0 0 0 Z " fill="#FFFFFF" transform="translate(139,122)"/>
<path d="M0 0 C2 2 2 2 2 6 C-1.76225077 8.03712549 -5.53604956 10.05183781 -9.3125 12.0625 C-10.38435547 12.64322266 -11.45621094 13.22394531 -12.56054688 13.82226562 C-13.58857422 14.36689453 -14.61660156 14.91152344 -15.67578125 15.47265625 C-16.62364502 15.98062744 -17.57150879 16.48859863 -18.5480957 17.01196289 C-21 18 -21 18 -24 17 C-24.33 16.01 -24.66 15.02 -25 14 C-21.58434853 12.03989199 -18.16730459 10.08222426 -14.75 8.125 C-13.78191406 7.56941406 -12.81382813 7.01382813 -11.81640625 6.44140625 C-10.88183594 5.90644531 -9.94726562 5.37148437 -8.984375 4.8203125 C-7.69611816 4.08192139 -7.69611816 4.08192139 -6.38183594 3.32861328 C-4.27999181 2.15618239 -2.1626285 1.05504751 0 0 Z " fill="#FFFFFF" transform="translate(130,106)"/>
<path d="M0 0 C0.33 1.65 0.66 3.3 1 5 C-2.57123794 7.20773109 -6.15872822 9.38753603 -9.75 11.5625 C-10.76578125 12.19091797 -11.7815625 12.81933594 -12.828125 13.46679688 C-14.29765625 14.35141602 -14.29765625 14.35141602 -15.796875 15.25390625 C-16.69760742 15.80377197 -17.59833984 16.3536377 -18.52636719 16.92016602 C-21 18 -21 18 -23.32519531 17.67163086 C-24.15422363 17.33917358 -24.15422363 17.33917358 -25 17 C-24.66440614 14.1724105 -24.23848204 13.19707039 -22.00634766 11.35253906 C-21.15089355 10.82885742 -20.29543945 10.30517578 -19.4140625 9.765625 C-18.01800781 8.90517578 -18.01800781 8.90517578 -16.59375 8.02734375 C-15.6140625 7.44082031 -14.634375 6.85429688 -13.625 6.25 C-12.65304688 5.64800781 -11.68109375 5.04601562 -10.6796875 4.42578125 C-3.41377905 0 -3.41377905 0 0 0 Z " fill="#FFFFFF" transform="translate(127,99)"/>
<path d="M0 0 C0.99 0.33 1.98 0.66 3 1 C3.33 1.99 3.66 2.98 4 4 C-2.89964482 9.80223939 -9.82973001 15.5317638 -17 21 C-18.32 20.34 -19.64 19.68 -21 19 C-18.66602059 13.07115576 -12.85818742 9.79750499 -8 6 C-7.20851563 5.35546875 -6.41703125 4.7109375 -5.6015625 4.046875 C-4.90804687 3.49515625 -4.21453125 2.9434375 -3.5 2.375 C-2.58734375 1.64410156 -2.58734375 1.64410156 -1.65625 0.8984375 C-1.1096875 0.60195312 -0.563125 0.30546875 0 0 Z " fill="#FFFFFF" transform="translate(105,71)"/>
<path d="M0 0 C1.32 0.66 2.64 1.32 4 2 C4 6.06396121 2.40867699 7.43185979 -0.0625 10.625 C-0.46718506 11.1519043 -0.87187012 11.67880859 -1.28881836 12.22167969 C-2.51895148 13.81995836 -3.75866528 15.41041301 -5 17 C-5.7115625 17.92039062 -6.423125 18.84078125 -7.15625 19.7890625 C-8.76410084 21.86477157 -10.37831697 23.9350917 -12 26 C-13.32 25.34 -14.64 24.68 -16 24 C-14.23765397 20.0198702 -11.6738073 16.6249657 -9.125 13.125 C-5.99335606 8.80388892 -2.93211731 4.45954586 0 0 Z " fill="#FFFFFF" transform="translate(61,29)"/>
<path d="M0 0 C1.65 0.66 3.3 1.32 5 2 C3.01359645 7.41346928 -0.07096135 11.61411071 -3.4375 16.25 C-4.02337891 17.07757813 -4.60925781 17.90515625 -5.21289062 18.7578125 C-5.78072266 19.54414062 -6.34855469 20.33046875 -6.93359375 21.140625 C-7.44978271 21.85766602 -7.96597168 22.57470703 -8.49780273 23.31347656 C-10 25 -10 25 -13 26 C-13.66 25.67 -14.32 25.34 -15 25 C-14.35897253 21.42183535 -12.86626089 19.00961069 -10.83984375 16.015625 C-10.21142578 15.08105469 -9.58300781 14.14648438 -8.93554688 13.18359375 C-8.27619141 12.21550781 -7.61683594 11.24742188 -6.9375 10.25 C-6.27427734 9.26644531 -5.61105469 8.28289063 -4.92773438 7.26953125 C-3.29028943 4.84281428 -1.64756564 2.41985213 0 0 Z " fill="#FFFFFF" transform="translate(54,24)"/>
<path d="M0 0 C1.65 0.99 3.3 1.98 5 3 C0.66165235 11.42552781 -4.68815037 19.17146822 -10 27 C-11.32 26.67 -12.64 26.34 -14 26 C-13.43190752 22.21174214 -12.39204456 19.63140465 -10.3125 16.42578125 C-9.77882813 15.59369141 -9.24515625 14.76160156 -8.6953125 13.90429688 C-7.85613281 12.62135742 -7.85613281 12.62135742 -7 11.3125 C-5.8952455 9.60063963 -4.79105097 7.88841772 -3.6875 6.17578125 C-3.19636719 5.42208252 -2.70523438 4.66838379 -2.19921875 3.8918457 C-0.9674264 2.01913986 -0.9674264 2.01913986 0 0 Z " fill="#FFFFFF" transform="translate(47,19)"/>
<path d="M0 0 C0 1.32 0 2.64 0 4 C-3.9108777 5.37130616 -7.82948238 6.71902743 -11.75 8.0625 C-12.86117187 8.45244141 -13.97234375 8.84238281 -15.1171875 9.24414062 C-16.72207031 9.79038086 -16.72207031 9.79038086 -18.359375 10.34765625 C-19.34389648 10.68804932 -20.32841797 11.02844238 -21.34277344 11.37915039 C-24.05520049 12.01289736 -25.4193025 11.94500645 -28 11 C-27.81176758 9.13598633 -27.81176758 9.13598633 -27 7 C-24.83862305 5.7956543 -24.83862305 5.7956543 -22.01171875 4.82421875 C-20.99529297 4.47166016 -19.97886719 4.11910156 -18.93164062 3.75585938 C-17.86107422 3.40330078 -16.79050781 3.05074219 -15.6875 2.6875 C-14.62853516 2.31560547 -13.56957031 1.94371094 -12.47851562 1.56054688 C-3.83634784 -1.37112975 -3.83634784 -1.37112975 0 0 Z " fill="#FFFFFF" transform="translate(149,147)"/>
<path d="M0 0 C0 1.32 0 2.64 0 4 C-3.93096795 5.70301874 -7.87070535 7.38471048 -11.8125 9.0625 C-13.49182617 9.79049805 -13.49182617 9.79049805 -15.20507812 10.53320312 C-16.27822266 10.98759766 -17.35136719 11.44199219 -18.45703125 11.91015625 C-19.44678955 12.33433838 -20.43654785 12.75852051 -21.45629883 13.19555664 C-24 14 -24 14 -27 13 C-27.33 12.01 -27.66 11.02 -28 10 C-21.90792062 6.85674628 -15.77948028 3.81557264 -9.5 1.0625 C-8.5409375 0.64097656 -7.581875 0.21945313 -6.59375 -0.21484375 C-3.85915187 -1.04263626 -2.63185521 -0.99936012 0 0 Z " fill="#FFFFFF" transform="translate(143,131)"/>
<path d="M0 0 C1.32 0.33 2.64 0.66 4 1 C4 5.32930322 1.43351131 7.59932183 -1.1875 10.8125 C-1.67025391 11.41642578 -2.15300781 12.02035156 -2.65039062 12.64257812 C-5.71869644 16.4686937 -8.85071112 20.24042845 -12 24 C-13.32 23.67 -14.64 23.34 -16 23 C-16 18.67069678 -13.43351131 16.40067817 -10.8125 13.1875 C-10.32974609 12.58357422 -9.84699219 11.97964844 -9.34960938 11.35742188 C-6.28130356 7.5313063 -3.14928888 3.75957155 0 0 Z " fill="#FFFFFF" transform="translate(68,35)"/>
<path d="M0 0 C0 1.65 0 3.3 0 5 C-2.23384328 6.11692164 -3.84471513 6.28636382 -6.32421875 6.53515625 C-7.62069336 6.66567383 -7.62069336 6.66567383 -8.94335938 6.79882812 C-9.84892578 6.88583984 -10.75449219 6.97285156 -11.6875 7.0625 C-12.57373047 7.15337891 -13.45996094 7.24425781 -14.37304688 7.33789062 C-19.27578305 7.82054341 -24.07416503 8.10107732 -29 8 C-29 6.35 -29 4.7 -29 3 C-24.91713576 2.49611916 -20.83363807 1.99756732 -16.75 1.5 C-15.59113281 1.35691406 -14.43226563 1.21382812 -13.23828125 1.06640625 C-11.56572266 0.86337891 -11.56572266 0.86337891 -9.859375 0.65625 C-8.83295898 0.53056641 -7.80654297 0.40488281 -6.74902344 0.27539062 C-4 0 -4 0 0 0 Z " fill="#FFFFFF" transform="translate(160,196)"/>
<path d="M0 0 C0 1.65 0 3.3 0 5 C-3.14408784 5.51139597 -6.29048573 6.00696036 -9.4375 6.5 C-10.31599609 6.64308594 -11.19449219 6.78617188 -12.09960938 6.93359375 C-17.80671625 7.81809002 -23.22494572 8.14099827 -29 8 C-29 6.68 -29 5.36 -29 4 C-19.51816126 1.75007216 -9.79206333 -0.45544481 0 0 Z " fill="#FFFFFF" transform="translate(159,188)"/>
<path d="M0 0 C0.33 1.65 0.66 3.3 1 5 C-4.55615891 6.44560696 -10.09498774 7.64064618 -15.75 8.625 C-16.49121094 8.7590625 -17.23242188 8.893125 -17.99609375 9.03125 C-21.40469229 9.63096752 -24.52703596 10 -28 10 C-28 8.35 -28 6.7 -28 5 C-23.8967776 4.16197087 -19.79227638 3.33038122 -15.6875 2.5 C-14.52025391 2.26152344 -13.35300781 2.02304688 -12.15039062 1.77734375 C-11.03212891 1.55175781 -9.91386719 1.32617188 -8.76171875 1.09375 C-7.73006592 0.88427734 -6.69841309 0.67480469 -5.63549805 0.45898438 C-3 0 -3 0 0 0 Z " fill="#FFFFFF" transform="translate(157,179)"/>
<path d="M0 0 C0.33 1.65 0.66 3.3 1 5 C-4.7249342 7.04461936 -10.48463685 8.70295852 -16.375 10.1875 C-17.07689453 10.36635742 -17.77878906 10.54521484 -18.50195312 10.72949219 C-21.41336356 11.45101564 -23.9881982 12 -27 12 C-27.33 10.35 -27.66 8.7 -28 7 C-23.70942891 5.82927814 -19.41736967 4.66410863 -15.125 3.5 C-13.90167969 3.16613281 -12.67835938 2.83226562 -11.41796875 2.48828125 C-10.25136719 2.17246094 -9.08476562 1.85664063 -7.8828125 1.53125 C-6.80402832 1.23798828 -5.72524414 0.94472656 -4.61376953 0.64257812 C-2 0 -2 0 0 0 Z " fill="#FFFFFF" transform="translate(153,162)"/>
<path d="M0 0 C0.33 1.65 0.66 3.3 1 5 C-2.72795947 6.14978637 -6.45756767 7.29413142 -10.1875 8.4375 C-11.24259766 8.76298828 -12.29769531 9.08847656 -13.38476562 9.42382812 C-14.91713867 9.89272461 -14.91713867 9.89272461 -16.48046875 10.37109375 C-17.41785889 10.65911865 -18.35524902 10.94714355 -19.32104492 11.24389648 C-21.86811247 11.9627763 -24.39855335 12.51932033 -27 13 C-27.33 11.35 -27.66 9.7 -28 8 C-23.89811052 6.65958897 -19.79313564 5.32888808 -15.6875 4 C-14.52025391 3.6184375 -13.35300781 3.236875 -12.15039062 2.84375 C-11.03212891 2.4828125 -9.91386719 2.121875 -8.76171875 1.75 C-7.73006592 1.41484375 -6.69841309 1.0796875 -5.63549805 0.734375 C-3 0 -3 0 0 0 Z " fill="#FFFFFF" transform="translate(151,154)"/>
<path d="M0 0 C1.32 0.66 2.64 1.32 4 2 C2.49914294 7.42617552 -1.24735778 10.76585331 -5.0625 14.6875 C-6.34697347 16.02289412 -7.62961818 17.36005043 -8.91015625 18.69921875 C-9.47871338 19.28533936 -10.04727051 19.87145996 -10.63305664 20.4753418 C-12.09615289 21.97222928 -12.09615289 21.97222928 -13 24 C-14.32 23.67 -15.64 23.34 -17 23 C-17 18.99047607 -15.56255087 17.91370053 -13 14.875 C-11.77990234 13.42287109 -11.77990234 13.42287109 -10.53515625 11.94140625 C-7.06872011 7.91948574 -3.56535116 3.93451559 0 0 Z " fill="#FFFFFF" transform="translate(75,40)"/>
<path d="M0 0 C0 1.32 0 2.64 0 4 C-3.72728171 4.84191873 -7.45710003 5.6720168 -11.1875 6.5 C-12.24259766 6.73847656 -13.29769531 6.97695312 -14.38476562 7.22265625 C-15.91713867 7.56103516 -15.91713867 7.56103516 -17.48046875 7.90625 C-18.41785889 8.11572266 -19.35524902 8.32519531 -20.32104492 8.54101562 C-22.93971199 8.98967088 -25.34939083 9.08407959 -28 9 C-28.33 7.68 -28.66 6.36 -29 5 C-24.00569703 3.64449748 -19.00597133 2.31173904 -14 1 C-13.06800781 0.75378906 -12.13601562 0.50757813 -11.17578125 0.25390625 C-7.14718477 -0.73785349 -4.00419883 -1.29167704 0 0 Z " fill="#FFFFFF" transform="translate(156,172)"/>
<path d="M0 0 C0 1.98 0 3.96 0 6 C-9.57 6 -19.14 6 -29 6 C-29 4.68 -29 3.36 -29 2 C-25.93486573 1.12456525 -23.08388888 0.81587951 -19.90234375 0.68359375 C-18.93619141 0.64169922 -17.97003906 0.59980469 -16.97460938 0.55664062 C-15.97236328 0.51732422 -14.97011719 0.47800781 -13.9375 0.4375 C-12.93138672 0.39431641 -11.92527344 0.35113281 -10.88867188 0.30664062 C-3.60230655 0 -3.60230655 0 0 0 Z " fill="#FFFFFF" transform="translate(161,213)"/>
<path d="M0 0 C0.33 1.65 0.66 3.3 1 5 C-3.08312313 5.33594186 -7.16653009 5.66830211 -11.25 6 C-12.40886719 6.09539062 -13.56773437 6.19078125 -14.76171875 6.2890625 C-16.43427734 6.42441406 -16.43427734 6.42441406 -18.140625 6.5625 C-19.16704102 6.64628906 -20.19345703 6.73007813 -21.25097656 6.81640625 C-23.49648109 6.96637245 -25.74949329 7 -28 7 C-28 5.35 -28 3.7 -28 2 C-25.02141273 1.66062892 -22.04230315 1.32837741 -19.0625 1 C-18.23169922 0.90460938 -17.40089844 0.80921875 -16.54492188 0.7109375 C-10.99415957 0.10618519 -5.583649 -0.09014973 0 0 Z " fill="#FFFFFF" transform="translate(160,205)"/>
<path d="M0 0 C9.57 0 19.14 0 29 0 C29 0.99 29 1.98 29 3 C19.43 3 9.86 3 0 3 C0 2.01 0 1.02 0 0 Z " fill="#FFFFFF" transform="translate(132,222)"/>
</svg>
