<svg width="118" height="29" viewBox="0 0 118 29" fill="none" xmlns="http://www.w3.org/2000/svg">
<mask id="path-1-inside-1_1387_1385" fill="white">
<path d="M116.5 20.0769C117.605 18.1638 116.952 15.7113 115.004 14.669C97.7986 5.46201 78.6443 0.436656 59.0969 0.0271951C39.5494 -0.382265 20.2015 3.83659 2.62544 12.315C0.635704 13.2748 -0.119011 15.6978 0.904472 17.6556L4.09195 23.7527C5.11543 25.7104 7.52935 26.4606 9.52329 25.5096C24.8747 18.1873 41.7438 14.547 58.7852 14.9039C75.8267 15.2609 92.5285 19.6045 107.56 27.5631C109.512 28.5968 111.955 27.9484 113.06 26.0352L116.5 20.0769Z"/>
</mask>
<path d="M116.5 20.0769C117.605 18.1638 116.952 15.7113 115.004 14.669C97.7986 5.46201 78.6443 0.436656 59.0969 0.0271951C39.5494 -0.382265 20.2015 3.83659 2.62544 12.315C0.635704 13.2748 -0.119011 15.6978 0.904472 17.6556L4.09195 23.7527C5.11543 25.7104 7.52935 26.4606 9.52329 25.5096C24.8747 18.1873 41.7438 14.547 58.7852 14.9039C75.8267 15.2609 92.5285 19.6045 107.56 27.5631C109.512 28.5968 111.955 27.9484 113.06 26.0352L116.5 20.0769Z" fill="#26DBC9" stroke="white" stroke-opacity="0.2" stroke-width="2" mask="url(#path-1-inside-1_1387_1385)"/>
</svg>
