<svg width="29" height="61" viewBox="0 0 29 61" fill="none" xmlns="http://www.w3.org/2000/svg">
<mask id="path-1-inside-1_1387_1383" fill="white">
<path d="M20.5769 1C18.6638 -0.104568 16.2113 0.548027 15.169 2.49583C6.17692 19.2998 1.17911 37.9519 0.564501 57.0006C0.49326 59.2086 2.29086 61 4.5 61H11.38C13.5891 61 15.3723 59.2084 15.4533 57.0007C16.056 40.5644 20.367 24.4757 28.0631 9.94014C29.0969 7.98778 28.4484 5.54457 26.5352 4.44L20.5769 1Z"/>
</mask>
<path d="M20.5769 1C18.6638 -0.104568 16.2113 0.548027 15.169 2.49583C6.17692 19.2998 1.17911 37.9519 0.564501 57.0006C0.49326 59.2086 2.29086 61 4.5 61H11.38C13.5891 61 15.3723 59.2084 15.4533 57.0007C16.056 40.5644 20.367 24.4757 28.0631 9.94014C29.0969 7.98778 28.4484 5.54457 26.5352 4.44L20.5769 1Z" fill="#947FFF" stroke="white" stroke-opacity="0.2" stroke-width="2" mask="url(#path-1-inside-1_1387_1383)"/>
</svg>
