<svg width="122" height="28" viewBox="0 0 122 28" fill="none" xmlns="http://www.w3.org/2000/svg">
<path d="M27.7431 18.4015C27.2913 20.5909 26.2586 22.6241 24.753 24.3061C24.3942 24.707 23.7775 24.7044 23.3902 24.331L21.0496 22.0749C20.6416 21.6816 20.6475 21.0315 21 20.5877C21.7433 19.6518 22.2577 18.5607 22.4981 17.3958C22.8076 15.8959 22.6488 14.3412 22.0416 12.9282C21.825 12.4241 21.5548 11.9462 21.2369 11.5012C21.0073 11.18 20.9479 10.7602 21.1187 10.4043L22.0315 8.50264L22.6779 7.15591C22.9573 6.57398 23.7082 6.40486 24.1689 6.85701C25.3649 8.0308 26.3227 9.42048 26.9823 10.9555C27.9942 13.3104 28.259 15.9016 27.7431 18.4015Z" fill="white"/>
<path d="M13.1604 18.8551L9.64027 9.45806L8.02996 5.40834C7.84094 4.93298 8.0397 4.38781 8.50732 4.18036C10.2528 3.406 12.1589 3 14.0969 3C15.9692 3 17.8118 3.37896 19.5085 4.10296C19.9704 4.30002 20.1797 4.82751 20.0133 5.30126L18.5535 9.45806L15.0333 18.8551C14.7091 19.7207 13.4847 19.7207 13.1604 18.8551Z" fill="white"/>
<path d="M0.256896 18.4015C0.708684 20.5909 1.74144 22.6241 3.24702 24.3061C3.60583 24.707 4.22248 24.7044 4.60983 24.331L6.95036 22.0749C7.35835 21.6816 7.35248 21.0315 7.00005 20.5877C6.25674 19.6518 5.74228 18.5607 5.50191 17.3958C5.19239 15.8959 5.35125 14.3412 5.95839 12.9282C6.17501 12.4241 6.44523 11.9462 6.76314 11.5012C6.99267 11.18 7.05214 10.7602 6.88128 10.4043L5.96849 8.50264L5.32206 7.15591C5.04273 6.57398 4.29178 6.40486 3.83109 6.85701C2.63513 8.0308 1.67733 9.42048 1.01769 10.9555C0.00579407 13.3104 -0.258965 15.9016 0.256896 18.4015Z" fill="white"/>
<path d="M39.4 22V7.6H48.5V9.29H41.18V13.8H47.3V15.49H41.18V20.31H48.5V22H39.4ZM49.7039 22L53.8339 16.54L49.7939 11.2H51.9139L54.8739 15.16L57.8039 11.2H59.9239L55.8839 16.54L60.0239 22H57.8939L54.8739 17.92L51.8339 22H49.7039ZM67.6566 22C67.0166 22.1267 66.3832 22.1767 65.7566 22.15C65.1366 22.13 64.5832 22.0067 64.0966 21.78C63.6099 21.5467 63.2399 21.1867 62.9866 20.7C62.7732 20.2733 62.6566 19.8433 62.6366 19.41C62.6232 18.97 62.6166 18.4733 62.6166 17.92V8.2H64.3966V17.84C64.3966 18.28 64.3999 18.6567 64.4066 18.97C64.4199 19.2833 64.4899 19.5533 64.6166 19.78C64.8566 20.2067 65.2366 20.4567 65.7566 20.53C66.2832 20.6033 66.9166 20.5833 67.6566 20.47V22ZM60.4266 12.67V11.2H67.6566V12.67H60.4266ZM69.8492 22V11.2H71.4392V13.81L71.1792 13.47C71.3059 13.1367 71.4692 12.83 71.6692 12.55C71.8759 12.27 72.1059 12.04 72.3592 11.86C72.6392 11.6333 72.9559 11.46 73.3092 11.34C73.6626 11.22 74.0226 11.15 74.3892 11.13C74.7559 11.1033 75.0992 11.1267 75.4192 11.2V12.87C75.0459 12.77 74.6359 12.7433 74.1892 12.79C73.7426 12.8367 73.3292 13 72.9492 13.28C72.6026 13.5267 72.3326 13.8267 72.1392 14.18C71.9526 14.5333 71.8226 14.9167 71.7492 15.33C71.6759 15.7367 71.6392 16.1533 71.6392 16.58V22H69.8492ZM80.0286 22.3C79.2219 22.3 78.5453 22.1533 77.9986 21.86C77.4586 21.56 77.0486 21.1667 76.7686 20.68C76.4953 20.1933 76.3586 19.66 76.3586 19.08C76.3586 18.5133 76.4653 18.0233 76.6786 17.61C76.8986 17.19 77.2053 16.8433 77.5986 16.57C77.9919 16.29 78.4619 16.07 79.0086 15.91C79.5219 15.77 80.0953 15.65 80.7286 15.55C81.3686 15.4433 82.0153 15.3467 82.6686 15.26C83.3219 15.1733 83.9319 15.09 84.4986 15.01L83.8586 15.38C83.8786 14.42 83.6853 13.71 83.2786 13.25C82.8786 12.79 82.1853 12.56 81.1986 12.56C80.5453 12.56 79.9719 12.71 79.4786 13.01C78.9919 13.3033 78.6486 13.7833 78.4486 14.45L76.7586 13.94C77.0186 12.9933 77.5219 12.25 78.2686 11.71C79.0153 11.17 79.9986 10.9 81.2186 10.9C82.1986 10.9 83.0386 11.0767 83.7386 11.43C84.4453 11.7767 84.9519 12.3033 85.2586 13.01C85.4119 13.3433 85.5086 13.7067 85.5486 14.1C85.5886 14.4867 85.6086 14.8933 85.6086 15.32V22H84.0286V19.41L84.3986 19.65C83.9919 20.5233 83.4219 21.1833 82.6886 21.63C81.9619 22.0767 81.0753 22.3 80.0286 22.3ZM80.2986 20.81C80.9386 20.81 81.4919 20.6967 81.9586 20.47C82.4319 20.2367 82.8119 19.9333 83.0986 19.56C83.3853 19.18 83.5719 18.7667 83.6586 18.32C83.7586 17.9867 83.8119 17.6167 83.8186 17.21C83.8319 16.7967 83.8386 16.48 83.8386 16.26L84.4586 16.53C83.8786 16.61 83.3086 16.6867 82.7486 16.76C82.1886 16.8333 81.6586 16.9133 81.1586 17C80.6586 17.08 80.2086 17.1767 79.8086 17.29C79.5153 17.3833 79.2386 17.5033 78.9786 17.65C78.7253 17.7967 78.5186 17.9867 78.3586 18.22C78.2053 18.4467 78.1286 18.73 78.1286 19.07C78.1286 19.3633 78.2019 19.6433 78.3486 19.91C78.5019 20.1767 78.7353 20.3933 79.0486 20.56C79.3686 20.7267 79.7853 20.81 80.2986 20.81ZM92.4486 22.3C91.4419 22.3 90.5786 22.05 89.8586 21.55C89.1386 21.0433 88.5819 20.36 88.1886 19.5C87.8019 18.64 87.6086 17.67 87.6086 16.59C87.6086 15.51 87.8019 14.54 88.1886 13.68C88.5819 12.82 89.1386 12.1433 89.8586 11.65C90.5786 11.15 91.4386 10.9 92.4386 10.9C93.4586 10.9 94.3153 11.1467 95.0086 11.64C95.7019 12.1333 96.2253 12.81 96.5786 13.67C96.9386 14.53 97.1186 15.5033 97.1186 16.59C97.1186 17.6633 96.9386 18.6333 96.5786 19.5C96.2253 20.36 95.7019 21.0433 95.0086 21.55C94.3153 22.05 93.4619 22.3 92.4486 22.3ZM92.6686 20.67C93.3953 20.67 93.9919 20.4967 94.4586 20.15C94.9253 19.7967 95.2686 19.3133 95.4886 18.7C95.7153 18.08 95.8286 17.3767 95.8286 16.59C95.8286 15.79 95.7153 15.0867 95.4886 14.48C95.2686 13.8667 94.9286 13.39 94.4686 13.05C94.0086 12.7033 93.4253 12.53 92.7186 12.53C91.9853 12.53 91.3786 12.71 90.8986 13.07C90.4253 13.43 90.0719 13.9167 89.8386 14.53C89.6119 15.1433 89.4986 15.83 89.4986 16.59C89.4986 17.3567 89.6153 18.05 89.8486 18.67C90.0819 19.2833 90.4319 19.77 90.8986 20.13C91.3719 20.49 91.9619 20.67 92.6686 20.67ZM95.8286 22V14.05H95.6286V7.6H97.4186V22H95.8286ZM104.82 22.3C103.747 22.3 102.82 22.0567 102.04 21.57C101.267 21.0833 100.67 20.41 100.25 19.55C99.8303 18.69 99.6203 17.7033 99.6203 16.59C99.6203 15.4567 99.8336 14.4633 100.26 13.61C100.687 12.7567 101.29 12.0933 102.07 11.62C102.85 11.14 103.767 10.9 104.82 10.9C105.9 10.9 106.83 11.1433 107.61 11.63C108.39 12.11 108.987 12.78 109.4 13.64C109.82 14.4933 110.03 15.4767 110.03 16.59C110.03 17.7167 109.82 18.71 109.4 19.57C108.98 20.4233 108.38 21.0933 107.6 21.58C106.82 22.06 105.894 22.3 104.82 22.3ZM104.82 20.61C105.94 20.61 106.774 20.2367 107.32 19.49C107.867 18.7433 108.14 17.7767 108.14 16.59C108.14 15.37 107.864 14.4 107.31 13.68C106.757 12.9533 105.927 12.59 104.82 12.59C104.067 12.59 103.447 12.76 102.96 13.1C102.474 13.44 102.11 13.91 101.87 14.51C101.63 15.11 101.51 15.8033 101.51 16.59C101.51 17.8033 101.79 18.7767 102.35 19.51C102.91 20.2433 103.734 20.61 104.82 20.61ZM116.156 22.29C114.869 22.29 113.812 22.01 112.986 21.45C112.166 20.8833 111.662 20.0933 111.476 19.08L113.296 18.79C113.442 19.3767 113.779 19.8433 114.306 20.19C114.832 20.53 115.486 20.7 116.266 20.7C117.006 20.7 117.586 20.5467 118.006 20.24C118.426 19.9333 118.636 19.5167 118.636 18.99C118.636 18.6833 118.566 18.4367 118.426 18.25C118.286 18.0567 117.996 17.8767 117.556 17.71C117.122 17.5433 116.466 17.3433 115.586 17.11C114.632 16.8567 113.882 16.5933 113.336 16.32C112.789 16.0467 112.399 15.73 112.166 15.37C111.932 15.01 111.816 14.5733 111.816 14.06C111.816 13.4267 111.989 12.8733 112.336 12.4C112.682 11.92 113.166 11.55 113.786 11.29C114.412 11.03 115.139 10.9 115.966 10.9C116.786 10.9 117.519 11.03 118.166 11.29C118.812 11.55 119.332 11.92 119.726 12.4C120.126 12.8733 120.362 13.4267 120.436 14.06L118.616 14.39C118.529 13.81 118.249 13.3533 117.776 13.02C117.309 12.6867 116.706 12.51 115.966 12.49C115.266 12.4633 114.696 12.5867 114.256 12.86C113.822 13.1333 113.606 13.5033 113.606 13.97C113.606 14.23 113.686 14.4533 113.846 14.64C114.012 14.8267 114.316 15.0033 114.756 15.17C115.202 15.3367 115.849 15.5267 116.696 15.74C117.649 15.98 118.399 16.2433 118.946 16.53C119.499 16.81 119.892 17.1433 120.126 17.53C120.359 17.91 120.476 18.38 120.476 18.94C120.476 19.98 120.092 20.8 119.326 21.4C118.559 21.9933 117.502 22.29 116.156 22.29Z" fill="white"/>
</svg>
